<svg id="Capa_1" enable-background="new 0 0 512 512" height="512" viewBox="0 0 512 512" width="512" xmlns="http://www.w3.org/2000/svg"><g><g><g><g><g><path d="m340.656 86.248c-9.94 0-17.999-8.058-17.999-17.999v-54.416l-6.581-11.225c-3.75-1.715-7.821-2.608-12.025-2.608h-244.708c-18.681 0-33.825 15.144-33.825 33.824v419.708c0 18.681 15.144 33.824 33.824 33.824h268.824c12.816 0 21.675-17.356 21.675-29.032v-372.076z" fill="#fffbe4"/><g><path d="m406.297 92.829-11.88-6.581h-53.761c-.022 0-.042-.003-.064-.003v401.111h39.281c16.034 0 29.032-12.998 29.032-29.032v-353.47c0-4.21-.888-8.271-2.608-12.025z" fill="#fbf4c6"/></g><path d="m400.402 84.326-75.823-75.823c-2.482-2.482-5.368-4.469-8.503-5.895v72.222c0 9.94 8.058 17.999 17.999 17.999h72.222c-1.427-3.135-3.413-6.021-5.895-8.503z" fill="#eabc6b"/></g><g><g><g><g><path d="m356.491 487.267c.138-21.26-.411-29.098.719-40.901h.01c.078-.81.167-1.618.256-2.426h-32.987v51.243c0 9.288 7.529 16.817 16.817 16.817h9.307l5.878-6.5z" fill="#a7a2d3"/><path d="m351.316 443.94c-.462 4.812-.703 9.657-.703 14.521v53.539h53.796c9.288 0 16.817-7.529 16.817-16.817v-51.243z" fill="#938bc6"/><path d="m361.069 423.837h.029c5.637-22.623 16.391-43.81 31.924-61.593.739-.846 1.488-1.685 2.246-2.516 18.861-20.669 30.364-48.167 30.364-78.354 0-50.55-32.259-93.552-77.309-109.579-51.016 11.332-89.33 57.208-89.089 111.451.131 29.379 11.412 56.122 29.829 76.22 20.748 22.641 33.856 51.03 37.733 81.181h31.072c.731-5.44 1.821-11.266 3.201-16.81z" fill="#ffe07d"/><path d="m372.017 169.11c-11.569.084-22.734 1.921-33.248 5.251 46.026 14.522 79.4 57.546 79.4 108.371 0 29.495-11.239 56.363-29.668 76.558-.741.812-1.473 1.632-2.195 2.458-19.396 22.206-31.205 49.835-34.637 78.9h67.258c3.909-30.21 17.132-58.614 37.887-81.358 18.429-20.195 29.668-47.063 29.668-76.558 0-63.034-51.327-114.079-114.465-113.622z" fill="#ffd064"/></g><path d="m419.817 315.461c-7.166 0-11.038 3.962-13.353 6.328-1.64 1.678-1.728 1.678-2.302 1.678s-.663 0-2.304-1.678c-2.314-2.367-6.186-6.328-13.351-6.328s-11.038 3.962-13.352 6.329c-1.64 1.677-1.727 1.677-2.301 1.677-.573 0-.661 0-2.301-1.677-2.314-2.367-6.186-6.329-13.351-6.329s-11.038 3.962-13.352 6.329c-1.64 1.677-1.727 1.677-2.301 1.677-.573 0-.661 0-2.301-1.677-2.314-2.367-6.186-6.329-13.351-6.329-6.388 0-9.483 7.03-6.845 12.069l24.093 46.022c1.769 3.379 2.703 7.181 2.703 10.992v37.383c0 4.268 3.459 7.726 7.726 7.726s7.726-3.459 7.726-7.726v-37.383c0-6.297-1.544-12.575-4.466-18.158l-14.395-27.497c6.593-.314 10.245-4.032 12.46-6.297 1.64-1.678 1.728-1.678 2.302-1.678.573 0 .661 0 2.301 1.677 2.314 2.367 6.186 6.329 13.351 6.329s11.037-3.962 13.351-6.328c1.64-1.678 1.728-1.678 2.302-1.678.573 0 .662 0 2.302 1.678 2.217 2.266 5.869 5.984 12.465 6.297l-14.395 27.499c-2.922 5.581-4.466 11.86-4.466 18.157v37.383c0 4.268 3.459 7.726 7.726 7.726s7.726-3.459 7.726-7.726v-37.383c0-3.811.935-7.613 2.703-10.991l24.093-46.023c2.484-4.742-.235-12.07-6.843-12.07z" fill="#ebb044"/></g><g fill="#f9f6f9"><path d="m357.211 446.366s.233-2.249.365-3.37h-.004c.716-6.088 1.916-12.809 3.498-19.159 0 0 .366-1.273.533-1.909h-39.223c-8.557 0-15.494 6.937-15.494 15.494 0 8.557 6.937 15.494 15.494 15.494h34.346c.11-2.119.265-4.26.485-6.55z"/><path d="m430.785 423.837c-.17-.094-.349-.173-.523-.26-.023.087-.05.173-.073.26z"/></g><g><path d="m356.726 452.916h-34.346c-8.557 0-15.494 6.937-15.494 15.494 0 8.557 6.937 15.494 15.494 15.494h34.128c.053-14.909-.209-22.785.218-30.988z" fill="#dddaec"/></g><path d="m423.335 421.928h-68.248c-2.516 10.096-3.982 20.485-4.364 30.988h72.612c8.557 0 15.494-6.937 15.494-15.494-.001-8.557-6.938-15.494-15.494-15.494z" fill="#dddaec"/><path d="m423.335 452.915h-72.612c-.067 1.846-.109 3.694-.109 5.546l-.001 25.442h72.722c8.557 0 15.494-6.937 15.494-15.494-.001-8.557-6.938-15.494-15.494-15.494z" fill="#d0cee7"/></g></g></g></g><path d="m214.346 199.279h-119.223c-7.693 0-13.929-6.236-13.929-13.929v-119.224c0-7.693 6.236-13.929 13.929-13.929h119.224c7.693 0 13.929 6.236 13.929 13.929v119.224c0 7.693-6.237 13.929-13.93 13.929z" fill="#bed8fb"/><path d="m175.463 80.477h-41.457c-4.267 0-7.726 3.459-7.726 7.726 0 4.268 3.459 7.726 7.726 7.726h12.919v67.343c0 4.268 3.459 7.726 7.726 7.726s7.726-3.459 7.726-7.726v-67.342h13.086c4.267 0 7.726-3.459 7.726-7.726.001-4.268-3.459-7.727-7.726-7.727z" fill="#5766cb"/></g></g></svg>